<svg version="1.1" xmlns="http://www.w3.org/2000/svg" xmlns:xlink="http://www.w3.org/1999/xlink" width="149" height="147.49874" viewBox="0,0,149,147.49874"><g transform="translate(-165.5,-106.25063)"><g data-paper-data="{&quot;isPaintingLayer&quot;:true}" fill-rule="nonzero" stroke-linejoin="miter" stroke-miterlimit="10" stroke-dasharray="" stroke-dashoffset="0" style="mix-blend-mode: normal"><path d="M165.5,253.74937v-147.49874h149v147.49874z" fill="none" stroke="none" stroke-width="0" stroke-linecap="butt"/><path d="M229.32831,161.00878c0,0 0,-5.95902 0,-8.085c0,-1.38474 1.29629,-3.43 3.185,-3.43c4.09989,0 10.99136,0 13.475,0c1.75973,0 3.92,2.22069 3.92,3.675c0,2.12415 0,7.84 0,7.84z" fill="#6e3b00" stroke="none" stroke-width="0" stroke-linecap="butt"/><path d="M222.3772,189.18633c0,-6.52469 0,-15.04925 0,-18.74764c0,-3.47951 5.34366,-8.06148 9.18635,-8.06148c3.39871,0 10.41412,0 16.31046,0c5.33193,0 9.74878,5.08726 9.74878,8.81139c0,3.7473 0,12.06204 0,18.37268c0,4.55215 -5.21515,8.0615 -8.99887,8.0615c-3.41058,0 -10.53244,0 -16.49794,0c-5.3372,0 -9.74878,-3.68878 -9.74878,-8.43645z" fill="#f29a00" stroke="none" stroke-width="0" stroke-linecap="butt"/><path d="M244.65944,181.04435v-10.87364" fill="none" stroke="#000000" stroke-width="5" stroke-linecap="round"/><path d="M252.53345,170.1707v10.87364" fill="none" stroke="#000000" stroke-width="5" stroke-linecap="round"/><g fill="none" stroke-width="2" stroke-linecap="round"><path d="M230.42027,158.10746l-6.81652,-11.40254" stroke="#00c206"/><path d="M229.08026,151.55029c0,0 -0.97111,1.29576 -1.60327,1.67367c-0.61797,0.36943 -2.10873,0.6348 -2.10873,0.6348" stroke="#00d807"/><path d="M230.45836,153.85554c0,0 -0.97111,1.29576 -1.60327,1.67367c-0.61797,0.36943 -2.10873,0.6348 -2.10873,0.6348" stroke="#00d807"/><path d="M227.77072,149.35971c0,0 -0.97111,1.29576 -1.60327,1.67367c-0.61797,0.36943 -2.10873,0.6348 -2.10873,0.6348" stroke="#00d807"/><path d="M226.47137,147.18619c0,0 -0.97111,1.29576 -1.60327,1.67367c-0.61797,0.36943 -2.10873,0.6348 -2.10873,0.6348" stroke="#00d807"/><path d="M225.17202,145.01266c0,0 -0.97111,1.29576 -1.60327,1.67367c-0.61797,0.36943 -2.10873,0.6348 -2.10873,0.6348" stroke="#00d807"/></g><path d="M224.85443,163.44378c0,-1.49516 0,-3.29632 0,-4.24667c0,-1.23093 1.50865,-3.10334 3.81111,-3.10334c6.27931,0 18.46271,0 22.05,0c1.94811,0 4.08334,1.8724 4.08334,3.10334c0,0.84846 0,2.37509 0,3.75666c0,1.56281 -2.01299,2.94 -3.87917,2.94c-3.54823,0 -15.91469,0 -22.25417,0c-2.30338,0 -3.81111,-1.10032 -3.81111,-2.45z" fill="#7b4200" stroke="#000000" stroke-width="0" stroke-linecap="butt"/></g></g></svg>